<svg xmlns="http://www.w3.org/2000/svg" width="256" height="256" viewBox="0 0 256 256" role="img" aria-labelledby="title desc">
  <title id="title">COPE-EH</title>
  <desc id="desc">Two ordered survival curves above a shared time axis, representing coherent overall and progression-free survival extrapolation.</desc>
  <defs>
    <linearGradient id="background" x1="0" y1="0" x2="1" y2="1">
      <stop offset="0" stop-color="#f0f8f7"/>
      <stop offset="1" stop-color="#e8f0fa"/>
    </linearGradient>
    <linearGradient id="band" x1="0" y1="0" x2="0" y2="1">
      <stop offset="0" stop-color="#168f96" stop-opacity=".16"/>
      <stop offset="1" stop-color="#2768b3" stop-opacity=".04"/>
    </linearGradient>
  </defs>
  <rect x="4" y="4" width="248" height="248" rx="60" fill="url(#background)"/>
  <path d="M49 55V202H208" fill="none" stroke="#9cb3c5" stroke-width="5" stroke-linecap="round"/>
  <path d="M51 67C79 67 91 76 107 99S146 144 204 154L204 181C151 177 121 160 104 134S79 68 51 67Z" fill="url(#band)"/>
  <path d="M51 67C79 67 91 76 107 99S146 144 204 154" fill="none" stroke="#168f96" stroke-width="9" stroke-linecap="round"/>
  <path d="M51 67C79 68 87 108 104 134S151 177 204 181" fill="none" stroke="#2768b3" stroke-width="9" stroke-linecap="round"/>
  <circle cx="107" cy="99" r="6.5" fill="#168f96"/>
  <circle cx="104" cy="134" r="6.5" fill="#2768b3"/>
</svg>
